# xmcd
#
# Track frame offsets:
#	150
#	17045
#	29532
#	40495
#	54335
#	68400
#	80890
#	91637
#	97960
#	110110
#	122257
#	137560
#	148490
#
# Disc length: 2173 seconds
# Revision: 2
# Processed by: cddbd v1.5.2PL0 Copyright (c) Steve Scherf et al.
# Submitted via: dBpowerAMP V12.0
#
DISCID=ad087b0d
DTITLE=The Seldom Scene - Act Two
DYEAR=1973
DGENRE=Bluegrass
TTITLE0=Last Train From Poor Valley
TTITLE1=Gardens And Memories
TTITLE2=Paradise
TTITLE3=Small Exception Of Me
TTITLE4=Train Leaves Here This Morning
TTITLE5=Keep Me From Blowin' Away
TTITLE6=Hello Mary Lou
TTITLE7=Lara's Theme
TTITLE8=I've Lost You
TTITLE9=The Sweetest Gift
TTITLE10=Reason For Being
TTITLE11=Smokin' Hickory
TTITLE12=House Of Gold
EXTD=
EXTT0=
EXTT1=
EXTT2=
EXTT3=
EXTT4=
EXTT5=
EXTT6=
EXTT7=
EXTT8=
EXTT9=
EXTT10=
EXTT11=
EXTT12=
PLAYORDER=
